<svg width="22" height="17" viewBox="0 0 22 17" fill="none" xmlns="http://www.w3.org/2000/svg">
<g clip-path="url(#clip0_623_6768)">
<path d="M3.06641 16.8457H18.7891C19.668 16.8457 20.3499 16.5934 20.835 16.0889C21.32 15.5843 21.5625 14.8275 21.5625 13.8184V3.03711C21.5625 2.0345 21.307 1.28092 20.7959 0.776367C20.2848 0.27181 19.5182 0.0195312 18.4961 0.0195312H2.77344C1.89453 0.0195312 1.21257 0.27181 0.727539 0.776367C0.242513 1.28092 0 2.0345 0 3.03711V13.8184C0 14.8275 0.255534 15.5843 0.766602 16.0889C1.27767 16.5934 2.04427 16.8457 3.06641 16.8457ZM3.00781 15.3516C2.51953 15.3516 2.14518 15.223 1.88477 14.9658C1.62435 14.7087 1.49414 14.3262 1.49414 13.8184V3.03711C1.49414 2.53581 1.62435 2.15658 1.88477 1.89941C2.14518 1.64225 2.51953 1.51367 3.00781 1.51367H18.5547C19.0364 1.51367 19.4092 1.64225 19.6729 1.89941C19.9366 2.15658 20.0684 2.53907 20.0684 3.04688V13.8281C20.0684 14.3294 19.9366 14.7087 19.6729 14.9658C19.4092 15.223 19.0364 15.3516 18.5547 15.3516H3.00781ZM10.8008 11.0352C11.1459 11.0352 11.4844 10.9603 11.8164 10.8105C12.1485 10.6608 12.487 10.4166 12.832 10.0781L20.7617 2.28516L19.7461 1.25977L11.9824 8.92578C11.7676 9.13411 11.5642 9.28711 11.3721 9.38477C11.18 9.48242 10.9896 9.53125 10.8008 9.53125C10.6055 9.53125 10.4118 9.48079 10.2197 9.37988C10.0277 9.27897 9.82747 9.12761 9.61914 8.92578L1.81641 1.2207L0.791016 2.24609L8.76953 10.0781C9.10807 10.4166 9.44498 10.6608 9.78027 10.8105C10.1156 10.9603 10.4557 11.0352 10.8008 11.0352ZM19.6484 15.5664L20.6641 14.541L14.3457 8.30078L13.3301 9.31641L19.6484 15.5664ZM0.927734 14.5508L1.94336 15.5762L8.27148 9.31641L7.24609 8.30078L0.927734 14.5508Z" fill="#8E8E93"/>
</g>
<defs>
<clipPath id="clip0_623_6768">
<rect width="21.5625" height="16.8457" fill="white"/>
</clipPath>
</defs>
</svg>
