<svg width="28" height="28" viewBox="0 0 28 28" fill="none" xmlns="http://www.w3.org/2000/svg">
<g clip-path="url(#clip0_548_11380)">
<path d="M10.5728 27.7484H23.8582C25.2344 27.7484 26.2688 27.4044 26.9612 26.7163C27.6537 26.0282 28 25.0049 28 23.6464V10.2551C28 8.89654 27.6537 7.87323 26.9612 7.18514C26.2688 6.49706 25.2344 6.15302 23.8582 6.15302H10.5728C9.18776 6.15302 8.14901 6.49485 7.45651 7.17853C6.76401 7.86221 6.41776 8.88773 6.41776 10.2551V23.6464C6.41776 25.0137 6.76401 26.0392 7.45651 26.7229C8.14901 27.4066 9.18776 27.7484 10.5728 27.7484ZM0 17.5197C0 18.8871 0.34625 19.9126 1.03875 20.5963C1.73125 21.2799 2.77 21.6217 4.15501 21.6217H4.60491V10.2551C4.60491 9.01123 4.84089 7.94822 5.31285 7.06605C5.7848 6.18388 6.46628 5.51123 7.35727 5.0481C8.24826 4.58496 9.32009 4.35339 10.5728 4.35339H21.5821V4.12845C21.5821 2.76991 21.2359 1.74659 20.5434 1.0585C19.8509 0.370412 18.8166 0.0263672 17.4404 0.0263672H4.15501C2.77 0.0263672 1.73125 0.368206 1.03875 1.05189C0.34625 1.73556 0 2.76108 0 4.12845V17.5197ZM10.758 16.9639C10.758 16.6199 10.8683 16.3398 11.0888 16.1237C11.3094 15.9076 11.5917 15.7996 11.9357 15.7996H16.0774V11.6577C16.0774 11.3137 16.1811 11.0314 16.3884 10.8109C16.5957 10.5903 16.867 10.48 17.2022 10.48C17.5463 10.48 17.8264 10.5903 18.0425 10.8109C18.2586 11.0314 18.3667 11.3137 18.3667 11.6577V15.7996H22.5217C22.8658 15.7996 23.1459 15.9076 23.3619 16.1237C23.5781 16.3398 23.6862 16.6199 23.6862 16.9639C23.6862 17.2991 23.5759 17.5704 23.3553 17.7777C23.1348 17.985 22.8569 18.0887 22.5217 18.0887H18.3667V22.2437C18.3667 22.5878 18.2586 22.8679 18.0425 23.0839C17.8264 23.3001 17.5463 23.4082 17.2022 23.4082C16.867 23.4082 16.5957 23.3001 16.3884 23.0839C16.1811 22.8679 16.0774 22.5878 16.0774 22.2437V18.0887H11.9357C11.5917 18.0887 11.3094 17.985 11.0888 17.7777C10.8683 17.5704 10.758 17.2991 10.758 16.9639Z" fill="#11D7D8"/>
</g>
<defs>
<clipPath id="clip0_548_11380">
<rect width="28" height="27.7485" fill="white"/>
</clipPath>
</defs>
</svg>
