<svg width="25" height="18" viewBox="0 0 25 18" fill="none" xmlns="http://www.w3.org/2000/svg">
<path d="M1 17.1401H23.81" stroke="#8E8E93" stroke-width="1.5" stroke-linecap="round" stroke-linejoin="round"/>
<path d="M8.95988 3.76004C8.95988 4.33004 8.49988 4.80004 7.91988 4.80004C7.33988 4.80004 6.87988 4.34004 6.87988 3.76004C6.87988 3.00004 7.67988 2.04004 7.91988 2.04004C8.15988 2.04004 8.95988 2.93004 8.95988 3.76004Z" stroke="#8E8E93" stroke-width="1.5" stroke-linecap="round" stroke-linejoin="round"/>
<path d="M7.91992 7.63005V4.80005" stroke="#8E8E93" stroke-width="1.5" stroke-linecap="round" stroke-linejoin="round"/>
<path d="M18.0195 3.76004C18.0195 4.33004 17.5595 4.80004 16.9795 4.80004C16.3995 4.80004 15.9395 4.34004 15.9395 3.76004C15.9395 3.00004 16.7395 2.04004 16.9795 2.04004C17.2195 2.04004 18.0195 2.93004 18.0195 3.76004Z" stroke="#8E8E93" stroke-width="1.5" stroke-linecap="round" stroke-linejoin="round"/>
<path d="M16.9805 7.63005V4.80005" stroke="#8E8E93" stroke-width="1.5" stroke-linecap="round" stroke-linejoin="round"/>
<path d="M13.4404 2.72C13.4404 3.29 12.9804 3.76 12.4004 3.76C11.8204 3.76 11.3604 3.3 11.3604 2.72C11.3604 1.96 12.1604 1 12.4004 1C12.6404 1 13.4404 1.89 13.4404 2.72V2.72Z" stroke="#8E8E93" stroke-width="1.5" stroke-linecap="round" stroke-linejoin="round"/>
<path d="M12.4102 7.63V3.75" stroke="#8E8E93" stroke-width="1.5" stroke-linecap="round" stroke-linejoin="round"/>
<path d="M7.32953 7.62988H17.4795C18.2095 7.62988 18.7995 8.21988 18.7995 8.94988V11.4699H6.01953V8.94988C6.01953 8.21988 6.60953 7.62988 7.33953 7.62988H7.32953Z" stroke="#8E8E93" stroke-width="1.5" stroke-linecap="round" stroke-linejoin="round"/>
<path d="M4.82953 11.47H19.9795C20.8395 11.47 21.5295 12.17 21.5295 13.02V16.91C21.5295 17.04 21.4295 17.14 21.2995 17.14H3.49953C3.36953 17.14 3.26953 17.04 3.26953 16.91V13.02C3.26953 12.16 3.96953 11.47 4.81953 11.47H4.82953Z" stroke="#8E8E93" stroke-width="1.5" stroke-linecap="round" stroke-linejoin="round"/>
</svg>
