<svg width="18" height="20" viewBox="0 0 18 20" fill="none" xmlns="http://www.w3.org/2000/svg">
<g clip-path="url(#clip0_623_6782)">
<path d="M8.39 0.229998L0.29 7.55C0.11 7.71 0 7.95 0 8.19V19.13C0 19.61 0.4 20 0.9 20H5.1C5.6 20 6 19.61 6 19.13V12.16C6 11.68 6.4 11.29 6.9 11.29H11.1C11.6 11.29 12 11.68 12 12.16V19.13C12 19.61 12.4 20 12.9 20H17.1C17.6 20 18 19.61 18 19.13V8.19C18 7.95 17.9 7.72 17.71 7.55L9.61 0.229998C9.26 -0.0800024 8.73 -0.0800024 8.38 0.229998H8.39Z" fill="#F5B0BD"/>
</g>
<defs>
<clipPath id="clip0_623_6782">
<rect width="18" height="20" fill="white"/>
</clipPath>
</defs>
</svg>
