<svg width="22" height="17" viewBox="0 0 22 17" fill="none" xmlns="http://www.w3.org/2000/svg">
<g clip-path="url(#clip0_622_6904)">
<path d="M10.8008 9.56055C11.1914 9.56055 11.5918 9.35547 12.002 8.94531L20.498 0.537109C20.1335 0.192057 19.4662 0.0195312 18.4961 0.0195312H2.77344C1.94661 0.0195312 1.3737 0.179037 1.05469 0.498047L9.59961 8.94531C10.0033 9.35547 10.4037 9.56055 10.8008 9.56055ZM0.244141 15.2734L7.14844 8.44727L0.224609 1.62109C0.0748697 1.90104 0 2.37305 0 3.03711V13.8184C0 14.5085 0.0813803 14.9935 0.244141 15.2734ZM3.06641 16.8457H18.7891C19.6029 16.8457 20.1725 16.6895 20.498 16.377L13.457 9.4043L12.8125 10.0586C12.155 10.6836 11.4844 10.9961 10.8008 10.9961C10.1107 10.9961 9.4401 10.6836 8.78906 10.0586L8.13477 9.4043L1.11328 16.3672C1.48437 16.6862 2.13542 16.8457 3.06641 16.8457ZM21.3281 15.2637C21.4844 14.9772 21.5625 14.4955 21.5625 13.8184V3.03711C21.5625 2.37956 21.4909 1.91732 21.3477 1.65039L14.4434 8.44727L21.3281 15.2637Z" fill="#F5B0BD"/>
</g>
<defs>
<clipPath id="clip0_622_6904">
<rect width="21.5625" height="16.8457" fill="white"/>
</clipPath>
</defs>
</svg>
