<svg width="18" height="20" viewBox="0 0 18 20" fill="none" xmlns="http://www.w3.org/2000/svg">
<g clip-path="url(#clip0_622_6786)">
<path d="M16.42 20H12.57C11.7 20 10.99 19.3 10.99 18.44V11.99L7.07 11.93L6.99 18.43C6.99 19.29 6.28 19.99 5.41 19.99H1.58C0.71 19.99 0 19.29 0 18.43V8.32C0 7.89 0.19 7.47 0.51 7.18L7.93 0.409998C8.53 -0.140002 9.47 -0.140002 10.07 0.409998L17.49 7.18C17.81 7.47 18 7.89 18 8.32V18.44C18 19.3 17.29 20 16.42 20V20ZM7.08 10.44H10.93C11.8 10.44 12.51 11.14 12.51 12V18.45L16.43 18.51L16.51 8.33L9.06 1.52C9.06 1.52 8.98 1.49 8.94 1.52L1.52 8.29L1.5 18.45L5.42 18.51L5.5 12.01C5.5 11.15 6.21 10.45 7.08 10.45V10.44Z" fill="#8E8E93"/>
</g>
<defs>
<clipPath id="clip0_622_6786">
<rect width="18" height="20" fill="white"/>
</clipPath>
</defs>
</svg>
