<?xml version="1.0" encoding="UTF-8"?><svg id="_이어_2" xmlns="http://www.w3.org/2000/svg" viewBox="0 0 20 21"><defs><style>.cls-1{fill:#824f2c;}</style></defs><path class="cls-1" d="M16.06,15.32c-.82,0-1.55-.38-2.02-.97-.47,.59-1.2,.97-2.02,.97s-1.55-.38-2.02-.97c-.47,.59-1.2,.97-2.02,.97s-1.55-.38-2.02-.97c-.47,.59-1.2,.97-2.02,.97-1.42,0-2.58-1.15-2.58-2.56h1.11c0,.8,.66,1.46,1.46,1.46s1.46-.65,1.46-1.46c0-.31,.25-.55,.56-.55s.56,.25,.56,.55c0,.8,.66,1.46,1.46,1.46s1.46-.65,1.46-1.46c0-.31,.25-.55,.56-.55s.56,.25,.56,.55c0,.8,.66,1.46,1.46,1.46s1.46-.65,1.46-1.46c0-.31,.25-.55,.56-.55s.56,.25,.56,.55c0,.8,.66,1.46,1.46,1.46s1.46-.65,1.46-1.46h1.11c0,1.41-1.16,2.56-2.58,2.56Z"/><path class="cls-1" d="M17.27,19.34H2.73c-.75,0-1.36-.55-1.36-1.23v-7.48c0-.68,.61-1.23,1.36-1.23h14.55c.75,0,1.36,.55,1.36,1.23v7.48c0,.68-.61,1.23-1.36,1.23ZM2.73,10.5c-.16,0-.25,.09-.25,.13v7.48s.1,.13,.25,.13h14.55c.16,0,.25-.09,.25-.13v-7.48s-.1-.13-.25-.13H2.73Z"/><path class="cls-1" d="M19.44,21H.56c-.31,0-.56-.25-.56-.55v-1.66c0-.31,.25-.55,.56-.55H19.44c.31,0,.56,.25,.56,.55v1.66c0,.31-.25,.55-.56,.55ZM1.11,19.89H18.89v-.55H1.11v.55Z"/><path class="cls-1" d="M10.25,3.32c-.71,0-1.34-.45-1.57-1.12-.06-.18-.03-.38,.1-.53,.12-.15,.31-.22,.5-.2,.25,0,.42-.16,.42-.36,0-.08-.02-.15-.07-.21-.11-.16-.14-.36-.06-.53,.07-.18,.23-.3,.42-.33,.09-.01,.17-.02,.26-.02,.92,0,1.67,.74,1.67,1.66s-.75,1.66-1.67,1.66Zm.51-1.87c-.07,.3-.24,.56-.46,.76,.28-.03,.5-.26,.5-.55,0-.07-.01-.14-.04-.21Z"/><path class="cls-1" d="M11.67,10.5h-2.78V4.56c0-.68,.56-1.24,1.25-1.24h.28c.69,0,1.25,.56,1.25,1.24v5.94Zm-1.67-1.11h.56V4.56c0-.07-.06-.13-.14-.13h-.28c-.07,0-.14,.06-.14,.13v4.84Z"/><path class="cls-1" d="M13.89,4.42c-.71,0-1.34-.45-1.57-1.12-.06-.18-.03-.38,.1-.53s.31-.22,.5-.2h.06c.2,0,.36-.16,.36-.36,0-.08-.02-.15-.07-.21-.11-.16-.14-.36-.06-.53,.07-.18,.23-.3,.42-.33,.09-.01,.17-.02,.26-.02,.92,0,1.67,.74,1.67,1.66s-.75,1.66-1.67,1.66Zm.51-1.87c-.07,.3-.24,.56-.46,.76,.28-.03,.5-.26,.5-.55,0-.07-.01-.14-.04-.21Z"/><path class="cls-1" d="M15.31,10.5h-2.78V5.6c0-.65,.53-1.17,1.18-1.17h.42c.65,0,1.18,.53,1.18,1.17v4.9Zm-1.67-1.11h.56v-3.8s-.03-.07-.07-.07h-.42s-.07,.03-.07,.07v3.8Z"/><path class="cls-1" d="M6.6,4.42c-.71,0-1.34-.45-1.57-1.12-.06-.18-.03-.38,.1-.53,.12-.15,.31-.22,.5-.2,.24,0,.42-.16,.42-.36,0-.08-.02-.15-.07-.21-.11-.16-.14-.36-.06-.53,.07-.18,.23-.3,.42-.33,.09-.01,.17-.02,.26-.02,.92,0,1.67,.74,1.67,1.66s-.75,1.66-1.67,1.66Zm.51-1.87c-.07,.3-.24,.56-.46,.76,.28-.03,.5-.26,.5-.55,0-.07-.01-.14-.04-.21Z"/><path class="cls-1" d="M8.02,10.5h-2.78V5.6c0-.65,.53-1.17,1.18-1.17h.42c.65,0,1.18,.53,1.18,1.17v4.9Zm-1.67-1.11h.56v-3.8s-.03-.07-.07-.07h-.42s-.07,.03-.07,.07v3.8Z"/></svg>