<svg width="25" height="17" viewBox="0 0 25 17" fill="none" xmlns="http://www.w3.org/2000/svg">
<path d="M0.75 15.8301H23.56" stroke="#F5B0BD" stroke-width="1.5" stroke-linecap="round" stroke-linejoin="round"/>
<path d="M9.70988 3.26004C9.70988 3.83004 9.24988 4.30004 8.66988 4.30004C8.08988 4.30004 7.62988 3.84004 7.62988 3.26004C7.62988 2.50004 8.42988 1.54004 8.66988 1.54004C8.90988 1.54004 9.70988 2.43004 9.70988 3.26004Z" fill="#F5B0BD" stroke="#F5B0BD" stroke-linecap="round" stroke-linejoin="round"/>
<path d="M8.66992 6.31999V4.48999" stroke="#F5B0BD" stroke-width="1.5" stroke-linecap="round" stroke-linejoin="round"/>
<path d="M16.7695 3.26004C16.7695 3.83004 16.3095 4.30004 15.7295 4.30004C15.1495 4.30004 14.6895 3.84004 14.6895 3.26004C14.6895 2.50004 15.4895 1.54004 15.7295 1.54004C15.9695 1.54004 16.7695 2.43004 16.7695 3.26004Z" fill="#F5B0BD" stroke="#F5B0BD" stroke-linecap="round" stroke-linejoin="round"/>
<path d="M15.7305 6.13005V4.30005" stroke="#F5B0BD" stroke-width="1.5" stroke-linecap="round" stroke-linejoin="round"/>
<path d="M13.1904 2.22C13.1904 2.79 12.7304 3.26 12.1504 3.26C11.5704 3.26 11.1104 2.8 11.1104 2.22C11.1104 1.46 11.9104 0.5 12.1504 0.5C12.3904 0.5 13.1904 1.39 13.1904 2.22V2.22Z" fill="#F5B0BD" stroke="#F5B0BD" stroke-linecap="round" stroke-linejoin="round"/>
<path d="M12.1602 6.13V3.25" stroke="#F5B0BD" stroke-width="1.5" stroke-linecap="round" stroke-linejoin="round"/>
<path d="M7.07953 6.12988H17.2295C17.9595 6.12988 18.5495 6.71988 18.5495 7.44988V8.11988H5.76953V7.44988C5.76953 6.71988 6.35953 6.12988 7.08953 6.12988H7.07953Z" fill="#F5B0BD" stroke="#F5B0BD" stroke-linecap="round" stroke-linejoin="round"/>
<path d="M4.57953 10.02H19.7295C20.5895 10.02 21.2795 10.72 21.2795 11.57V13.42C21.2795 13.55 21.1795 13.65 21.0495 13.65H3.24953C3.11953 13.65 3.01953 13.55 3.01953 13.42V11.57C3.01953 10.71 3.71953 10.02 4.56953 10.02H4.57953Z" fill="#F5B0BD" stroke="#F5B0BD" stroke-linecap="round" stroke-linejoin="round"/>
</svg>
