<svg width="38" height="38" viewBox="0 0 38 38" fill="none" xmlns="http://www.w3.org/2000/svg">
<circle cx="19" cy="19" r="19" fill="#007AFF"/>
<g clip-path="url(#clip0_146_4185)">
<path d="M23.7941 25.8079C22.6943 27.3236 20.9192 28.255 19 28.255C17.0809 28.255 15.3057 27.3237 14.2059 25.8079C12.7886 26.8309 11.7108 28.2953 11.174 30H26.8261C26.2893 28.2953 25.2114 26.8308 23.7941 25.8079Z" fill="white"/>
<path d="M19 24.2609C17.7738 24.2609 16.6106 24.5304 15.5659 25.0129C16.3801 26.0549 17.6409 26.6897 19 26.6897C20.359 26.6897 21.6199 26.0549 22.4341 25.0129C21.3893 24.5303 20.2262 24.2609 19 24.2609Z" fill="white"/>
<path d="M25.2587 16.0104C24.8618 15.5744 24.2303 15.4552 23.6288 15.6427C23.5234 15.0219 23.2962 14.4427 22.9725 13.9304H15.0275C14.7038 14.4427 14.4766 15.022 14.3712 15.6427C13.7697 15.4552 13.1381 15.5745 12.7413 16.0104C12.1602 16.6487 12.3022 17.7243 13.0585 18.4128C13.4452 18.7648 13.9436 18.9411 14.4001 18.948C14.8385 21.0869 16.7314 22.6957 19 22.6957C21.2686 22.6957 23.1614 21.0869 23.5999 18.9479C24.0564 18.941 24.5548 18.7648 24.9415 18.4127C25.6978 17.7243 25.8398 16.6487 25.2587 16.0104Z" fill="white"/>
<path d="M18.9999 6L17.3826 9.2348H20.6173L18.9999 6Z" fill="white"/>
<path d="M21.4 10.8H16.6L15.8174 12.3652H22.1826L21.4 10.8Z" fill="white"/>
</g>
<defs>
<clipPath id="clip0_146_4185">
<rect width="24" height="24" fill="white" transform="translate(7 6)"/>
</clipPath>
</defs>
</svg>
